<?xml version="1.0" encoding="iso-8859-1"?>
<!-- Generator: Adobe Illustrator 19.0.0, SVG Export Plug-In . SVG Version: 6.00 Build 0)  -->
<svg version="1.1" id="Layer_1" xmlns="http://www.w3.org/2000/svg" xmlns:xlink="http://www.w3.org/1999/xlink" x="0px" y="0px"
	 viewBox="0 0 512 512" style="enable-background:new 0 0 512 512;" xml:space="preserve">
<g>
	<g>
		<g>
			<path d="M175.255,143.14H112.86c-6.08,0-11.011,4.931-11.011,11.011v55.054c0,6.08,4.931,11.011,11.011,11.011h62.395
				c6.08,0,11.011-4.931,11.011-11.011v-55.054C186.266,148.07,181.335,143.14,175.255,143.14z M164.244,198.194h-40.373v-33.032
				h40.373V198.194z"/>
			<path d="M224.803,220.215h62.394c6.08,0,11.011-4.931,11.011-11.011v-55.054c0-6.08-4.931-11.011-11.011-11.011h-62.394
				c-6.08,0-11.011,4.931-11.011,11.011v55.054C213.792,215.284,218.723,220.215,224.803,220.215z M235.814,165.161h40.372v33.032
				h-40.372V165.161z"/>
			<path d="M336.745,220.215h62.395c6.08,0,11.011-4.931,11.011-11.011v-55.054c0-6.08-4.931-11.011-11.011-11.011h-62.395
				c-6.08,0-11.011,4.931-11.011,11.011v55.054C325.734,215.284,330.665,220.215,336.745,220.215z M347.756,165.161h40.373v33.032
				h-40.373V165.161z"/>
			<path d="M175.255,242.237H112.86c-6.08,0-11.011,4.931-11.011,11.011v55.054c0,6.08,4.931,11.011,11.011,11.011h62.395
				c6.08,0,11.011-4.931,11.011-11.011v-55.054C186.266,247.167,181.335,242.237,175.255,242.237z M164.244,297.29h-40.373v-33.032
				h40.373V297.29z"/>
			<path d="M298.208,253.247c0-6.08-4.931-11.011-11.011-11.011h-62.394c-6.08,0-11.011,4.931-11.011,11.011v55.054
				c0,6.08,4.931,11.011,11.011,11.011h62.394c6.08,0,11.011-4.931,11.011-11.011V253.247z M276.186,297.29h-40.372v-33.032h40.372
				V297.29z"/>
			<path d="M336.745,319.312h62.395c6.08,0,11.011-4.931,11.011-11.011v-55.054c0-6.08-4.931-11.011-11.011-11.011h-62.395
				c-6.08,0-11.011,4.931-11.011,11.011v55.054C325.734,314.381,330.665,319.312,336.745,319.312z M347.756,264.258h40.373v33.032
				h-40.373V264.258z"/>
			<path d="M175.255,341.333H112.86c-6.08,0-11.011,4.931-11.011,11.011v55.054c0,6.08,4.931,11.011,11.011,11.011h62.395
				c6.08,0,11.011-4.931,11.011-11.011v-55.054C186.266,346.264,181.335,341.333,175.255,341.333z M164.244,396.387h-40.373v-33.032
				h40.373V396.387z"/>
			<path d="M336.745,418.409h62.395c6.08,0,11.011-4.931,11.011-11.011v-55.054c0-6.08-4.931-11.011-11.011-11.011h-62.395
				c-6.08,0-11.011,4.931-11.011,11.011v55.054C325.734,413.478,330.665,418.409,336.745,418.409z M347.756,363.355h40.373v33.032
				h-40.373V363.355z"/>
			<path d="M487.226,445.935h-27.527V115.613h17.893c3.992,0,7.672-2.161,9.616-5.647c1.946-3.487,1.85-7.753-0.249-11.15
				L429.152,5.225C427.148,1.978,423.602,0,419.785,0H92.215c-3.817,0-7.363,1.978-9.368,5.225L25.041,98.816
				c-2.098,3.397-2.193,7.662-0.249,11.15c1.945,3.486,5.623,5.647,9.616,5.647h17.894v330.323H24.774
				c-6.08,0-11.011,4.931-11.011,11.011v44.043c0,6.08,4.931,11.011,11.011,11.011h462.452c6.08,0,11.011-4.931,11.011-11.011
				v-44.043C498.237,450.866,493.306,445.935,487.226,445.935z M98.356,22.021h315.289l14.468,23.423h-50.743
				c-6.08,0-11.011,4.931-11.011,11.011s4.931,11.011,11.011,11.011h60.927c1.09,0,2.14-0.164,3.134-0.459l16.419,26.584h-9.161
				H63.312h-9.161L98.356,22.021z M287.197,341.333h-62.394c-6.08,0-11.011,4.931-11.011,11.011v93.591H74.323V115.613h363.355
				v330.323h-139.47v-93.591C298.208,346.264,293.277,341.333,287.197,341.333z M276.186,363.355v82.581h-40.372v-82.581H276.186z
				 M476.215,489.979H35.785v-22.022h27.527h161.491h62.394h161.491h27.527V489.979z"/>
			<path d="M310.194,67.466h18.352c6.08,0,11.011-4.931,11.011-11.011s-4.931-11.011-11.011-11.011h-18.352
				c-6.08,0-11.011,4.931-11.011,11.011S304.114,67.466,310.194,67.466z"/>
		</g>
	</g>
</g>
<g>
</g>
<g>
</g>
<g>
</g>
<g>
</g>
<g>
</g>
<g>
</g>
<g>
</g>
<g>
</g>
<g>
</g>
<g>
</g>
<g>
</g>
<g>
</g>
<g>
</g>
<g>
</g>
<g>
</g>
</svg>
