<svg height="512pt" viewBox="-4 0 512 512" width="512pt" xmlns="http://www.w3.org/2000/svg"><path d="m493.234375 440.367188h-9.164063v-41.632813c0-5.523437-4.476562-10-10-10h-25.90625v-34.148437c0-5.519532-4.476562-10-10-10h-8.1875v-108.277344h8.1875c5.523438 0 10-4.476563 10-10v-34.148438h14.78125c4.230469 0 8.003907-2.664062 9.421876-6.648437 1.417968-3.984375.175781-8.433594-3.101563-11.105469l-211.332031-172.160156c-3.679688-2.996094-8.957032-2.996094-12.632813 0l-211.332031 172.160156c-3.277344 2.671875-4.523438 7.121094-3.105469 11.105469s5.191407 6.648437 9.421875 6.648437h14.78125v34.148438c0 5.519531 4.480469 10 10 10h8.191406v108.277344h-8.191406c-5.519531 0-10 4.476562-10 10v34.144531h-25.902344c-5.523437 0-10 4.480469-10 10v41.632812h-9.164062c-5.523438 0-10 4.480469-10 10v51.636719c0 5.523438 4.476562 10 10 10h483.234375c5.523437 0 10-4.476562 10-10v-51.632812c0-5.523438-4.476563-10-10-10zm-186.4375-51.632813v-34.148437c0-5.519532-4.480469-10-10-10h-8.191406v-108.277344h8.191406c5.519531 0 10-4.476563 10-10v-34.148438h31.015625v34.148438c0 5.519531 4.476562 10 10 10h8.191406v108.277344h-8.191406c-5.523438 0-10 4.476562-10 10v34.148437zm-141.375 0v-34.148437c0-5.519532-4.476563-10-10-10h-8.191406v-108.277344h8.191406c5.523437 0 10-4.476563 10-10v-34.148438h31.019531v34.148438c0 5.519531 4.476563 10 10 10h8.1875v108.277344h-8.1875c-5.523437 0-10 4.476562-10 10v34.148437zm103.183594-44.148437h-33.976563v-108.277344h33.976563zm18.191406-128.277344h-70.355469v-24.148438h70.355469zm-70.359375 148.277344h70.355469v24.148437h-70.355469zm141.375 0h70.351562v24.148437h-70.351562zm52.164062-20h-33.976562v-108.277344h33.976562zm18.1875-128.277344h-70.351562v-24.148438h70.351562zm-176.546874-193.410156 183.222656 149.261718h-366.445313zm-106.195313 169.261718v24.148438h-70.355469v-24.148438zm-52.164063 44.148438h33.976563v108.277344h-33.976563zm-18.191406 128.277344h70.355469v24.148437h-70.355469zm408.167969 127.414062h-463.234375v-31.632812h100.984375c5.523437 0 10-4.476563 10-10 0-5.523438-4.476563-10-10-10h-81.820313v-31.632813h424.90625v31.632813h-256.804687c-5.523437 0-10 4.476562-10 10 0 5.523437 4.476563 10 10 10h275.96875zm0 0"/><path d="m163.21875 460.371094c-.652344 0-1.3125-.070313-1.953125-.199219-.636719-.132813-1.269531-.320313-1.867187-.570313-.609376-.25-1.191407-.5625-1.730469-.921874-.550781-.359376-1.058594-.78125-1.519531-1.238282-.460938-.460937-.882813-.972656-1.242188-1.519531-.359375-.542969-.667969-1.121094-.917969-1.730469-.25-.601562-.441406-1.230468-.570312-1.871094-.128907-.640624-.199219-1.300781-.199219-1.949218 0-.648438.070312-1.3125.199219-1.960938.128906-.640625.320312-1.261718.570312-1.871094.25-.597656.558594-1.179687.917969-1.71875.359375-.550781.78125-1.058593 1.242188-1.519531.460937-.460937.96875-.878906 1.519531-1.25.539062-.359375 1.121093-.671875 1.730469-.921875.597656-.25 1.230468-.4375 1.867187-.570312 1.292969-.257813 2.621094-.257813 3.910156 0 .632813.132812 1.261719.320312 1.871094.570312.601563.25 1.179687.5625 1.71875.921875.550781.371094 1.0625.789063 1.523437 1.25.457032.460938.878907.96875 1.25 1.519531.359376.539063.667969 1.121094.917969 1.71875.25.609376.441407 1.230469.570313 1.871094.128906.648438.191406 1.308594.191406 1.960938 0 .648437-.0625 1.308594-.191406 1.949218-.128906.640626-.320313 1.269532-.570313 1.871094-.25.609375-.558593 1.1875-.917969 1.730469-.371093.546875-.792968 1.058594-1.25 1.519531-.460937.457032-.972656.878906-1.523437 1.238282-.539063.359374-1.117187.671874-1.71875.921874-.609375.25-1.238281.4375-1.871094.570313-.648437.128906-1.308593.199219-1.957031.199219zm0 0"/><path d="m251.617188 154.273438c-26.71875 0-48.457032-21.75-48.457032-48.484376 0-26.734374 21.738282-48.484374 48.457032-48.484374s48.457031 21.75 48.457031 48.484374c0 26.734376-21.738281 48.484376-48.457031 48.484376zm0-76.96875c-15.691407 0-28.457032 12.777343-28.457032 28.484374 0 15.707032 12.765625 28.484376 28.457032 28.484376 15.691406 0 28.457031-12.777344 28.457031-28.484376 0-15.707031-12.765625-28.484374-28.457031-28.484374zm0 0"/></svg>