<?xml version="1.0" encoding="iso-8859-1"?>
<!-- Generator: Adobe Illustrator 19.0.0, SVG Export Plug-In . SVG Version: 6.00 Build 0)  -->
<svg version="1.1" id="Capa_1" xmlns="http://www.w3.org/2000/svg" xmlns:xlink="http://www.w3.org/1999/xlink" x="0px" y="0px"
	 viewBox="0 0 512 512" style="enable-background:new 0 0 512 512;" xml:space="preserve">
<g>
	<g>
		<path d="M383.069,56.93C381.21,55.07,378.63,54,376,54s-5.21,1.07-7.07,2.93C367.07,58.79,366,61.37,366,64s1.069,5.21,2.93,7.07
			c1.861,1.86,4.44,2.93,7.07,2.93s5.21-1.07,7.069-2.93C384.93,69.21,386,66.63,386,64S384.93,58.79,383.069,56.93z"/>
	</g>
</g>
<g>
	<g>
		<path d="M229.439,122.15c-29.775,0-54,24.224-54,54c0,29.776,24.225,54,54,54c29.775,0,54-24.224,54-54
			S259.214,122.15,229.439,122.15z M229.439,210.15c-18.748,0-34-15.252-34-34c0-18.748,15.252-34,34-34c18.748,0,34,15.252,34,34
			C263.439,194.898,248.187,210.15,229.439,210.15z"/>
	</g>
</g>
<g>
	<g>
		<path d="M260.251,363.86c-1.861-1.86-4.432-2.93-7.061-2.93c-2.64,0-5.21,1.07-7.08,2.93c-1.859,1.86-2.92,4.44-2.92,7.07
			s1.061,5.21,2.92,7.07c1.87,1.859,4.44,2.93,7.08,2.93c2.62,0,5.2-1.07,7.061-2.93c1.87-1.86,2.939-4.44,2.939-7.07
			S262.121,365.72,260.251,363.86z"/>
	</g>
</g>
<g>
	<g>
		<path d="M118.011,305.021h-64c-5.522,0-10,4.478-10,10v64c0,5.522,4.478,10,10,10h64c5.522,0,10-4.478,10-10v-64
			C128.011,309.498,123.533,305.021,118.011,305.021z M108.011,369.021h-44v-44h44V369.021z"/>
	</g>
</g>
<g>
	<g>
		<path d="M482,222h-24V64c0-5.523-4.478-10-10-10h-30.333c-5.522,0-10,4.477-10,10s4.478,10,10,10H438v130.848L307.146,74H343
			c5.522,0,10-4.477,10-10s-4.478-10-10-10h-55.855L236.071,2.929c-3.906-3.905-10.236-3.905-14.143,0l-51.477,51.474
			C169.565,54.146,168.63,54,167.66,54H116V10c0-5.523-4.478-10-10-10H42c-5.522,0-10,4.477-10,10v44H10C4.478,54,0,58.477,0,64
			v397.938c0,5.522,4.478,10,10,10h278.004V482c0,16.542,13.458,30,30,30H482c16.542,0,30-13.458,30-30V252
			C512,235.458,498.542,222,482,222z M52,20h44v34H52V20z M20,74h130.854L20,204.848V74z M288.004,252v199.938h-20.337h-81.348
			l49.752-49.752c3.905-3.905,3.905-10.237,0-14.143c-3.906-3.904-10.236-3.904-14.143,0l-50.49,50.49v-44.329l76.716-76.716
			c3.905-3.905,3.905-10.237,0-14.143c-3.906-3.904-10.236-3.904-14.143,0l-62.573,62.573v-84.896H237c5.522,0,10-4.478,10-10
			c0-5.522-4.478-10-10-10h-75.562c-5.522,0-10,4.478-10,10v180.914H20v-212.35v-6.455l209-208.99L426.868,222H318.004
			C301.462,222,288.004,235.458,288.004,252z M492,482c0,5.514-4.486,10-10,10H318.004c-5.514,0-10-4.486-10-10V252
			c0-5.514,4.486-10,10-10H482c5.514,0,10,4.486,10,10V482z"/>
	</g>
</g>
<g>
	<g>
		<path d="M462.002,262h-124c-5.522,0-10,4.478-10,10v48c0,5.522,4.478,10,10,10h124c5.522,0,10-4.478,10-10v-48
			C472.002,266.478,467.525,262,462.002,262z M452.002,310h-104v-28h104V310z"/>
	</g>
</g>
<g>
	<g>
		<path d="M352.751,355.938h-14.749c-5.522,0-10,4.478-10,10c0,5.522,4.478,10,10,10h14.749c5.522,0,10-4.478,10-10
			C362.751,360.416,358.274,355.938,352.751,355.938z"/>
	</g>
</g>
<g>
	<g>
		<path d="M407.376,355.938h-14.749c-5.522,0-10,4.478-10,10c0,5.522,4.478,10,10,10h14.749c5.522,0,10-4.478,10-10
			C417.376,360.416,412.899,355.938,407.376,355.938z"/>
	</g>
</g>
<g>
	<g>
		<path d="M462.002,355.938h-14.749c-5.522,0-10,4.478-10,10c0,5.522,4.478,10,10,10h14.749c5.522,0,10-4.478,10-10
			C472.002,360.416,467.525,355.938,462.002,355.938z"/>
	</g>
</g>
<g>
	<g>
		<path d="M352.751,403.938h-14.749c-5.522,0-10,4.478-10,10c0,5.522,4.478,10,10,10h14.749c5.522,0,10-4.478,10-10
			C362.751,408.416,358.274,403.938,352.751,403.938z"/>
	</g>
</g>
<g>
	<g>
		<path d="M407.376,403.938h-14.749c-5.522,0-10,4.478-10,10c0,5.522,4.478,10,10,10h14.749c5.522,0,10-4.478,10-10
			C417.376,408.416,412.899,403.938,407.376,403.938z"/>
	</g>
</g>
<g>
	<g>
		<path d="M462.002,403.938h-14.749c-5.522,0-10,4.478-10,10c0,5.522,4.478,10,10,10h14.749c5.522,0,10-4.478,10-10
			C472.002,408.416,467.525,403.938,462.002,403.938z"/>
	</g>
</g>
<g>
	<g>
		<path d="M352.751,451.938h-14.749c-5.522,0-10,4.478-10,10c0,5.522,4.478,10,10,10h14.749c5.522,0,10-4.478,10-10
			C362.751,456.416,358.274,451.938,352.751,451.938z"/>
	</g>
</g>
<g>
	<g>
		<path d="M407.376,451.938h-14.749c-5.522,0-10,4.478-10,10c0,5.522,4.478,10,10,10h14.749c5.522,0,10-4.478,10-10
			C417.376,456.416,412.899,451.938,407.376,451.938z"/>
	</g>
</g>
<g>
	<g>
		<path d="M462.002,451.938h-14.749c-5.522,0-10,4.478-10,10c0,5.522,4.478,10,10,10h14.749c5.522,0,10-4.478,10-10
			C472.002,456.416,467.525,451.938,462.002,451.938z"/>
	</g>
</g>
<g>
</g>
<g>
</g>
<g>
</g>
<g>
</g>
<g>
</g>
<g>
</g>
<g>
</g>
<g>
</g>
<g>
</g>
<g>
</g>
<g>
</g>
<g>
</g>
<g>
</g>
<g>
</g>
<g>
</g>
</svg>
