<?xml version="1.0" encoding="iso-8859-1"?>
<!-- Generator: Adobe Illustrator 19.0.0, SVG Export Plug-In . SVG Version: 6.00 Build 0)  -->
<svg version="1.1" id="Layer_1" xmlns="http://www.w3.org/2000/svg" xmlns:xlink="http://www.w3.org/1999/xlink" x="0px" y="0px"
	 viewBox="0 0 511.999 511.999" style="enable-background:new 0 0 511.999 511.999;" xml:space="preserve">
<g>
	<g>
		<path d="M475.515,120.027H364.112v-12.873c0-22.777-18.53-41.307-41.307-41.307h-133.61c-22.777,0-41.307,18.53-41.307,41.307
			v12.873H36.485C16.367,120.027,0,136.393,0,156.511v253.156c0,20.118,16.367,36.485,36.485,36.485h439.03
			c20.118,0,36.485-16.367,36.485-36.485V156.511C512,136.393,495.632,120.027,475.515,120.027z M168.287,107.153
			c0-11.529,9.379-20.908,20.908-20.908h133.61c11.529,0,20.908,9.379,20.908,20.908v12.873H168.287V107.153z M491.602,409.668
			c0,8.87-7.216,16.086-16.086,16.086H36.485c-8.87,0-16.086-7.216-16.086-16.086V307.595l17.42,17.287
			c1.91,1.896,4.493,2.96,7.184,2.96h160.001v34.802c0,5.633,4.566,10.199,10.199,10.199h81.594c5.632,0,10.199-4.566,10.199-10.199
			v-34.802h83.633c5.632,0,10.199-4.566,10.199-10.199c0-5.633-4.567-10.199-10.199-10.199H49.204l-28.806-28.585V156.511
			c0-8.87,7.217-16.086,16.086-16.086h439.03c8.87,0,16.086,7.216,16.086,16.086v121.355l-31.898,32.648
			c-3.937,4.029-3.861,10.486,0.167,14.423c1.984,1.938,4.556,2.904,7.126,2.904c2.651,0,5.297-1.026,7.296-3.072l17.31-17.714
			V409.668z M225.402,352.444v-24.603h61.195v24.603H225.402z"/>
	</g>
</g>
<g>
	<g>
		<path d="M430.406,307.443h-6.12c-5.632,0-10.199,4.566-10.199,10.199c0,5.633,4.567,10.199,10.199,10.199h6.12
			c5.632,0,10.199-4.566,10.199-10.199C440.606,312.009,436.038,307.443,430.406,307.443z"/>
	</g>
</g>
<g>
</g>
<g>
</g>
<g>
</g>
<g>
</g>
<g>
</g>
<g>
</g>
<g>
</g>
<g>
</g>
<g>
</g>
<g>
</g>
<g>
</g>
<g>
</g>
<g>
</g>
<g>
</g>
<g>
</g>
</svg>
