<?xml version="1.0" encoding="iso-8859-1"?>
<!-- Generator: Adobe Illustrator 19.0.0, SVG Export Plug-In . SVG Version: 6.00 Build 0)  -->
<svg version="1.1" id="Capa_1" xmlns="http://www.w3.org/2000/svg" xmlns:xlink="http://www.w3.org/1999/xlink" x="0px" y="0px"
	 viewBox="0 0 512 512" style="enable-background:new 0 0 512 512;" xml:space="preserve">
<g>
	<g>
		<path d="M502,374h-48c-5.522,0-10,4.478-10,10c0,5.522,4.478,10,10,10h38v60c0,20.953-17.047,38-38,38s-38-17.047-38-38V10
			c0-5.522-4.478-10-10-10H61.981c-5.522,0-10,4.478-10,10v47c0,5.522,4.478,10,10,10c5.522,0,10-4.478,10-10V20H396v434
			c0,14.527,5.381,27.813,14.238,38H109.981c-20.953,0-38-17.047-38-38v-76c0-5.522-4.478-10-10-10c-5.522,0-10,4.478-10,10v76
			c0,31.981,26.019,58,58,58H454c31.981,0,58-26.019,58-58v-70C512,378.478,507.522,374,502,374z"/>
	</g>
</g>
<g>
	<g>
		<path d="M69.049,324.93c-1.861-1.86-4.44-2.93-7.07-2.93s-5.21,1.069-7.069,2.93c-1.86,1.86-2.931,4.44-2.931,7.07
			s1.07,5.21,2.931,7.069c1.87,1.861,4.44,2.931,7.069,2.931c2.63,0,5.21-1.07,7.07-2.931c1.86-1.859,2.93-4.439,2.93-7.069
			S70.91,326.79,69.049,324.93z"/>
	</g>
</g>
<g>
	<g>
		<path d="M302.74,208.526c-6.983-7.708-18.364-19.382-32.931-31.224c-25.7-20.893-65.874-45.799-111.31-45.799
			c-45.499,0-85.638,24.788-111.298,45.583c-14.668,11.888-26.016,23.538-32.952,31.219C0,224.084,0,226.567,0,229.442
			c0,3.004,0,5.175,14.26,20.916c6.983,7.708,18.365,19.381,32.931,31.223c25.7,20.893,65.874,45.799,111.31,45.799
			c45.498,0,85.637-24.788,111.297-45.583c14.668-11.887,26.016-23.537,32.952-31.218C317,234.801,317,232.317,317,229.442
			C317,226.437,317,224.266,302.74,208.526z M254.253,268.616c-22.485,17.684-57.35,38.764-95.753,38.764
			c-65.982,0-121.055-60.147-135.963-78.081c6.448-7.879,20.541-23.562,40.21-39.031c22.485-17.684,57.35-38.764,95.753-38.764
			c65.986,0,121.056,60.146,135.963,78.082C288.015,237.465,273.922,253.148,254.253,268.616z"/>
	</g>
</g>
<g>
	<g>
		<path d="M201.134,189.79c-0.461-0.526-0.934-1.044-1.436-1.546c-0.501-0.5-1.019-0.973-1.543-1.434
			c-10.408-9.688-24.347-15.631-39.655-15.631c-32.126,0-58.263,26.137-58.263,58.263c0,32.126,26.137,58.262,58.263,58.262
			c32.126,0,58.263-26.136,58.263-58.262C216.763,214.136,210.821,200.198,201.134,189.79z M169.042,202.386
			c2.276-2.276,5.267-3.415,8.257-3.415c2.781,0,5.553,0.998,7.76,2.966c0.321,0.31,0.636,0.625,0.946,0.946
			c4.085,4.58,3.944,11.623-0.449,16.016c-4.553,4.553-11.961,4.553-16.514,0C164.489,214.346,164.489,206.939,169.042,202.386z
			 M158.499,267.705c-21.097-0.001-38.262-17.165-38.262-38.263c0-18.833,13.681-34.52,31.623-37.674
			c-9.208,12.393-8.197,30.038,3.039,41.274c6.176,6.175,14.287,9.263,22.399,9.263c6.648,0,13.293-2.077,18.875-6.224
			C193.02,254.024,177.332,267.705,158.499,267.705z"/>
	</g>
</g>
<g>
	<g>
		<path d="M158.49,40c-5.522,0-10,4.478-10,10v45.312c0,5.522,4.478,10,10,10c5.522,0,10-4.478,10-10V50
			C168.49,44.478,164.012,40,158.49,40z"/>
	</g>
</g>
<g>
	<g>
		<path d="M117.019,105.725L98.797,87.519c-3.909-3.904-10.239-3.9-14.143,0.006c-3.903,3.907-3.9,10.239,0.006,14.143
			l18.223,18.207c1.953,1.95,4.511,2.925,7.068,2.925c2.561,0,5.121-0.978,7.074-2.932
			C120.928,115.961,120.925,109.629,117.019,105.725z"/>
	</g>
</g>
<g>
	<g>
		<path d="M232.34,87.536c-3.907-3.902-10.239-3.9-14.143,0.006l-19.373,19.389c-3.903,3.907-3.9,10.238,0.006,14.143
			c1.952,1.95,4.511,2.926,7.068,2.926c2.561,0,5.122-0.978,7.075-2.932l19.373-19.389C236.249,97.772,236.246,91.441,232.34,87.536
			z"/>
	</g>
</g>
<g>
	<g>
		<path d="M345.991,358h-224c-5.522,0-10,4.478-10,10v80c0,5.522,4.478,10,10,10h224c5.522,0,10-4.478,10-10v-80
			C355.991,362.478,351.514,358,345.991,358z M335.991,438h-204v-60h204V438z"/>
	</g>
</g>
<g>
	<g>
		<path d="M345.991,310H284c-5.522,0-10,4.478-10,10c0,5.522,4.478,10,10,10h61.991c5.522,0,10-4.478,10-10
			C355.991,314.478,351.514,310,345.991,310z"/>
	</g>
</g>
<g>
	<g>
		<path d="M345.991,262h-19.496c-5.522,0-10,4.478-10,10c0,5.522,4.478,10,10,10h19.496c5.522,0,10-4.478,10-10
			C355.991,266.478,351.514,262,345.991,262z"/>
	</g>
</g>
<g>
	<g>
		<path d="M345.991,102H303.5c-5.522,0-10,4.478-10,10c0,5.522,4.478,10,10,10h42.491c5.522,0,10-4.478,10-10
			C355.991,106.478,351.513,102,345.991,102z"/>
	</g>
</g>
<g>
	<g>
		<path d="M345.991,54H303.5c-5.522,0-10,4.478-10,10s4.478,10,10,10h42.491c5.522,0,10-4.478,10-10
			C355.991,58.478,351.513,54,345.991,54z"/>
	</g>
</g>
<g>
	<g>
		<path d="M345.991,150H303.5c-5.522,0-10,4.478-10,10c0,5.522,4.478,10,10,10h42.491c5.522,0,10-4.478,10-10
			C355.991,154.478,351.513,150,345.991,150z"/>
	</g>
</g>
<g>
</g>
<g>
</g>
<g>
</g>
<g>
</g>
<g>
</g>
<g>
</g>
<g>
</g>
<g>
</g>
<g>
</g>
<g>
</g>
<g>
</g>
<g>
</g>
<g>
</g>
<g>
</g>
<g>
</g>
</svg>
